<?xml version="1.0" encoding="utf-8"?>
<!-- Generator: Adobe Illustrator 19.0.0, SVG Export Plug-In . SVG Version: 6.00 Build 0)  -->
<svg version="1.1" id="Calque_1" xmlns="http://www.w3.org/2000/svg" xmlns:xlink="http://www.w3.org/1999/xlink" x="0px" y="0px"
	 viewBox="521 111.6 823 324" style="enable-background:new 521 111.6 823 324;" xml:space="preserve">
<style type="text/css">
	.st0{fill:#3D3D3D;}
	.st1{fill:#F8AC38;}
</style>
<path class="st0" d="M789.4,266.5V134.3h36.5v132.2c0,5.1,1.8,9.4,5.3,12.9c3.5,3.5,7.8,5.3,12.9,5.3c5,0,9.2-1.8,12.7-5.3
	c3.5-3.5,5.2-7.8,5.2-12.9V134.3h36.5v132.2c0,5.1,1.8,9.4,5.3,12.9c3.6,3.5,7.8,5.3,12.9,5.3c5.1,0,9.4-1.8,13-5.3
	c3.6-3.5,5.3-7.8,5.3-12.9V134.3h36.5v132.2c0,15.2-5.4,28.1-16.1,38.9c-10.7,10.7-23.7,16.1-38.7,16.1c-13.8,0-26-4.7-36.4-14.1
	c-10.2,9.4-22.3,14.1-36.3,14.1c-15.1,0-28-5.4-38.7-16.1C794.8,294.7,789.4,281.7,789.4,266.5z"/>
<path class="st0" d="M1006.9,316.8V134.3h36.5v182.5L1006.9,316.8L1006.9,316.8z"/>
<path class="st0" d="M1078.5,316.8V134.3h36.5v145.9h72.7v36.5L1078.5,316.8L1078.5,316.8z"/>
<path class="st0" d="M1213.6,316.8V134.3h45.6c11.5,0,22.2,2.9,31.9,8.6c9.8,5.7,17.5,13.5,23.2,23.3c5.7,9.8,8.5,20.5,8.5,32v54.7
	c0,11.5-2.8,22.1-8.5,31.9c-5.7,9.8-13.4,17.6-23.2,23.3c-9.8,5.8-20.4,8.7-31.9,8.7L1213.6,316.8L1213.6,316.8z M1250.1,280.2h9
	c7.5,0,14-2.7,19.2-8.1s7.9-11.8,7.9-19.3v-54.7c0-7.5-2.6-14-7.9-19.3c-5.3-5.3-11.7-8-19.2-8h-9V280.2z"/>
<path class="st1" d="M808.4,416.2c-5.6,0-10.2-2-13.8-5.6c-5.2-5.2-5-11.5-5-20.4c0-8.8-0.1-15.2,5-20.4c3.6-3.6,8.2-5.6,13.8-5.6
	c9.5,0,17,5.5,18.8,16.1h-10.1c-1-4.1-3.6-7.2-8.6-7.2c-2.7,0-4.9,1-6.4,2.7c-1.9,2.2-2.5,4.6-2.5,14.4s0.6,12.3,2.5,14.4
	c1.4,1.6,3.7,2.7,6.4,2.7c5,0,7.6-3.2,8.6-7.2h10.1C825.4,410.8,817.8,416.2,808.4,416.2z"/>
<path class="st1" d="M873.8,410.6c-3.6,3.6-8,5.6-13.8,5.6c-5.8,0-10.3-2-13.8-5.6c-5.2-5.2-5-11.5-5-20.4c0-8.8-0.1-15.2,5-20.4
	c3.6-3.6,8-5.6,13.8-5.6c5.8,0,10.2,2,13.8,5.6c5.2,5.2,5.1,11.5,5.1,20.4C878.9,399.1,879,405.5,873.8,410.6z M866.4,375.9
	c-1.4-1.6-3.7-2.7-6.4-2.7c-2.7,0-5,1.1-6.5,2.7c-1.9,2.1-2.4,4.5-2.4,14.3s0.5,12.2,2.4,14.3c1.4,1.6,3.7,2.7,6.5,2.7
	c2.7,0,4.9-1.1,6.4-2.7c1.9-2.2,2.5-4.5,2.5-14.3S868.4,378.1,866.4,375.9z"/>
<path class="st1" d="M928.2,410.9c-3.4,3.4-8.2,4.9-13.5,4.9h-18.4v-51h18.4c5.3,0,10.1,1.5,13.5,4.9c5.7,5.7,5.2,12.8,5.2,20.4
	C933.3,397.7,933.9,405.2,928.2,410.9z M921.2,376.8c-1.7-2.1-4-3.2-7.5-3.2h-7.5v33.3h7.5c3.4,0,5.7-1.1,7.5-3.2
	c1.9-2.3,2.2-6,2.2-13.7S923.1,379.1,921.2,376.8z"/>
<path class="st1" d="M950.7,415.8v-51h33.6v8.9h-23.7v12h20.1v8.9h-20.1v12.4h23.7v8.9L950.7,415.8L950.7,415.8z"/>
<path class="st0" d="M1039.1,416.2c-7.7,0-13.6-1.6-18.6-6.7l6.5-6.5c3.2,3.2,7.6,4.3,12.3,4.3c5.9,0,9-2.2,9-6.3
	c0-1.8-0.5-3.3-1.6-4.3c-1-0.9-2.2-1.4-4.5-1.8l-6.2-0.9c-4.4-0.6-7.6-2-9.9-4.2c-2.4-2.4-3.7-5.7-3.7-10c0-9.1,6.7-15.5,17.8-15.5
	c7,0,12.1,1.7,16.5,6l-6.3,6.2c-3.2-3.1-7.1-3.5-10.5-3.5c-5.3,0-7.9,2.9-7.9,6.5c0,1.3,0.4,2.7,1.5,3.7c1,0.9,2.7,1.7,4.7,2l6,0.9
	c4.7,0.6,7.6,1.9,9.8,3.9c2.7,2.6,3.9,6.3,3.9,10.8C1058,410.6,1049.7,416.2,1039.1,416.2z"/>
<path class="st0" d="M1091.6,416.2c-5.6,0-10.2-2-13.8-5.6c-5.2-5.2-5-11.5-5-20.4c0-8.8-0.1-15.2,5-20.4c3.6-3.6,8.2-5.6,13.8-5.6
	c9.5,0,17,5.5,18.8,16.1h-10.1c-1-4.1-3.6-7.2-8.6-7.2c-2.7,0-4.9,1-6.4,2.7c-1.9,2.2-2.5,4.6-2.5,14.4s0.6,12.3,2.5,14.4
	c1.4,1.6,3.7,2.7,6.4,2.7c5,0,7.6-3.2,8.6-7.2h10.1C1108.6,410.8,1101.1,416.2,1091.6,416.2z"/>
<path class="st0" d="M1153.4,415.8v-21.4h-17.3v21.4h-10v-51h10v20.9h17.3v-20.9h10v51H1153.4z"/>
<path class="st0" d="M1213.3,410.6c-3.6,3.6-8,5.6-13.8,5.6c-5.8,0-10.3-2-13.8-5.6c-5.2-5.2-5-11.5-5-20.4c0-8.8-0.1-15.2,5-20.4
	c3.6-3.6,8-5.6,13.8-5.6c5.8,0,10.2,2,13.8,5.6c5.2,5.2,5.1,11.5,5.1,20.4C1218.4,399.1,1218.5,405.5,1213.3,410.6z M1206,375.9
	c-1.4-1.6-3.7-2.7-6.4-2.7c-2.7,0-5,1.1-6.5,2.7c-1.9,2.1-2.4,4.5-2.4,14.3s0.5,12.2,2.4,14.3c1.4,1.6,3.7,2.7,6.5,2.7
	c2.7,0,4.9-1.1,6.4-2.7c1.9-2.2,2.5-4.5,2.5-14.3S1207.9,378.1,1206,375.9z"/>
<path class="st0" d="M1266.7,410.6c-3.6,3.6-8,5.6-13.8,5.6c-5.8,0-10.3-2-13.8-5.6c-5.2-5.2-5-11.5-5-20.4c0-8.8-0.1-15.2,5-20.4
	c3.6-3.6,8-5.6,13.8-5.6c5.8,0,10.2,2,13.8,5.6c5.2,5.2,5.1,11.5,5.1,20.4C1271.8,399.1,1271.8,405.5,1266.7,410.6z M1259.3,375.9
	c-1.4-1.6-3.7-2.7-6.4-2.7c-2.7,0-5,1.1-6.5,2.7c-1.9,2.1-2.4,4.5-2.4,14.3s0.5,12.2,2.4,14.3c1.4,1.6,3.7,2.7,6.5,2.7
	c2.7,0,4.9-1.1,6.4-2.7c1.9-2.2,2.5-4.5,2.5-14.3S1261.2,378.1,1259.3,375.9z"/>
<path class="st0" d="M1289.1,415.8v-51h10v42.2h23.2v8.9L1289.1,415.8L1289.1,415.8z"/>
<g>
	<path class="st1" d="M650.2,216.5c-0.5,0.4-0.9,0.8-1.3,1.1c-3.7,3-9.4,6-14.2,8.5c-10.8,5.4-20.2,9.2-32.7,12.6
		c-5.7,1.6-13.8,2.3-18.9,1.8c-19.6-2-34.6-14-43-26.9c-0.8,4.8-1.2,9.7-1.2,14.7c0,21.3,7.2,40.9,19.3,56.5
		c1.4-1.8,2.9-3.6,4.4-5.2c20.2-20.4,50.4-20,72.6-37.1c8.1-6.2,15.7-15.3,23.1-23.5c-6,6.8-9.8,8.3-15.7,8.8
		c1.8-4.9,4.1-8,6.3-10.1C649.4,217.4,649.8,216.9,650.2,216.5z"/>
	<path class="st1" d="M669.4,208.9c0.4-0.3,0.8-0.7,1.1-1.1c1.1-1.5,2.2-3.8-1.8-1.6c-0.5,0.3-1,0.7-1.3,1.1
		C665.3,210.1,667.1,210.5,669.4,208.9z"/>
	<path class="st1" d="M631.5,135.8c-45.7,0-83.6,33.1-91.1,76.6c5.2,4.7,10.1,10.6,18,13.3c9.1,3,19.1,1.5,25.8-1.9
		c-1.4-8-8.5-13.9-16.4-19.4c14.2,3.2,21.9,13.1,30.4,20.6c8.2,0.8,15.3-0.8,22.7-3c11.1-3.3,23.4-8.9,31.7-16.7
		c2.7-2.6,6.2-6.2,7.9-9.1c4.8-7.9,5.5-16.3,6.9-23.1c0.8,9.6-0.2,21.4-7.5,32.9c2.1-1.4,4.5-2.8,6.6-4.3
		c7.3-5.2,13.2-9.4,20.5-14.9c2.6-2,7.9-7.3,10.7-6.1c2.7,1.1,2.4,6.7,1.9,9.3c-1.1,6.7-3.1,12.6-4.9,17.5
		c-5.4,14.8-12.7,28.4-19.6,42c-14.3,27.7-30.9,44.2-50.3,57.5c-5.4,3.7-11.1,7.2-16.5,11c7,1.8,14.3,2.8,21.8,2.9
		c0.8-6.8,1.6-16.6,1.6-16.6l15.2-13.2c-2.5,10.1-3.8,20.5-7.4,29.4c47.3-4.1,84.3-43.8,84.3-92.1
		C724,177.2,682.6,135.8,631.5,135.8z"/>
</g>
</svg>
